<?xml version="1.0" encoding="UTF-8" standalone="no"?>
<!-- Created with Inkscape (http://www.inkscape.org/) -->

<svg
   width="2048"
   height="2048"
   viewBox="0 0 541.86666 541.86668"
   version="1.1"
   id="svg5"
   inkscape:version="1.1.2 (0a00cf5339, 2022-02-04)"
   sodipodi:docname="Kate_MapCreation.svg"
   inkscape:export-filename="/home/kevin/Desktop/My_World/PersonalRepositoy/STK_Projects/KateCharacter/Kate.png"
   inkscape:export-xdpi="96"
   inkscape:export-ydpi="96"
   xmlns:inkscape="http://www.inkscape.org/namespaces/inkscape"
   xmlns:sodipodi="http://sodipodi.sourceforge.net/DTD/sodipodi-0.dtd"
   xmlns="http://www.w3.org/2000/svg"
   xmlns:svg="http://www.w3.org/2000/svg"
   xmlns:rdf="http://www.w3.org/1999/02/22-rdf-syntax-ns#"
   xmlns:cc="http://creativecommons.org/ns#">
  <sodipodi:namedview
     id="namedview7"
     pagecolor="#ffffff"
     bordercolor="#666666"
     borderopacity="1.0"
     inkscape:pageshadow="2"
     inkscape:pageopacity="0.0"
     inkscape:pagecheckerboard="0"
     inkscape:document-units="px"
     showgrid="false"
     units="px"
     inkscape:zoom="0.11633838"
     inkscape:cx="855.26376"
     inkscape:cy="967.00676"
     inkscape:window-width="1302"
     inkscape:window-height="739"
     inkscape:window-x="0"
     inkscape:window-y="0"
     inkscape:window-maximized="1"
     inkscape:current-layer="layer1"
     objecttolerance="1" />
  <defs
     id="defs2" />
  <g
     inkscape:label="Layer 1"
     inkscape:groupmode="layer"
     id="layer1">
    <rect
       style="fill:#eefbff;stroke-width:1.36500001;stroke-linecap:round;stroke-opacity:0.998259;fill-opacity:1;stroke:#000000;stroke-miterlimit:4;stroke-dasharray:none"
       id="rect929"
       width="571.26013"
       height="571.26013"
       x="-10.883457"
       y="-6.3389072" />
    <rect
       style="fill:#ffffff;fill-opacity:1;stroke:none;stroke-width:1.365;stroke-linecap:round;stroke-miterlimit:4;stroke-dasharray:none;stroke-opacity:0.998259"
       id="rect4766"
       width="322.45087"
       height="322.45087"
       x="-35.274689"
       y="246.55663" />
    <rect
       style="fill:#23353c;fill-opacity:1;stroke:#0e3d8e;stroke-width:3.65100002;stroke-linecap:round;stroke-miterlimit:4;stroke-dasharray:none;stroke-opacity:1"
       id="rect4834"
       width="11.364845"
       height="39.733154"
       x="129.35428"
       y="381.03656"
       ry="5.6824226" />
    <ellipse
       style="fill:#ffffff;fill-opacity:1;stroke:#000000;stroke-width:0.229587;stroke-linecap:round;stroke-miterlimit:4;stroke-dasharray:none;stroke-opacity:1"
       id="path9782"
       cx="129.21593"
       cy="386.22186"
       rx="4.6596603"
       ry="6.1793647" />
    <ellipse
       style="fill:#ff81e5;fill-opacity:1;stroke:none;stroke-width:0.0802209;stroke-linecap:round;stroke-miterlimit:4;stroke-dasharray:none;stroke-opacity:1"
       id="path10059"
       cx="496.34869"
       cy="139.45119"
       rx="14.856496"
       ry="5.8206229" />
    <path
       id="path12548"
       style="fill:none;stroke:#a6e8fe;stroke-width:0.83300001;stroke-linecap:round;stroke-miterlimit:4;stroke-dasharray:none;stroke-opacity:1"
       d="m 350.6047,105.99114 c 0,-29.823573 24.17076,-54.003527 53.99432,-54.014867 29.82356,-0.01127 54.0127,24.150239 54.03538,53.973807"
       sodipodi:nodetypes="csc" />
    <circle
       style="fill:#ff81e5;fill-opacity:1;stroke:none;stroke-width:0.0802209;stroke-linecap:round;stroke-miterlimit:4;stroke-dasharray:none;stroke-opacity:1"
       id="path12408"
       cx="478.01669"
       cy="106.25115"
       r="13.284891" />
    <rect
       style="fill:#23353c;fill-opacity:1;stroke:#000000;stroke-width:0.2;stroke-linecap:round;stroke-miterlimit:4;stroke-dasharray:none;stroke-opacity:1"
       id="rect14172"
       width="40.284206"
       height="40.284206"
       x="2.9038804"
       y="10.542423" />
    <rect
       style="fill:#27519a;fill-opacity:1;stroke:#000000;stroke-width:0.2;stroke-linecap:round;stroke-miterlimit:4;stroke-dasharray:none;stroke-opacity:1"
       id="rect16701"
       width="40.284206"
       height="40.284206"
       x="2.9038804"
       y="50.82663" />
    <rect
       style="fill:#ff81e5;fill-opacity:1;stroke:none;stroke-width:0.2;stroke-linecap:round;stroke-miterlimit:4;stroke-dasharray:none;stroke-opacity:1"
       id="rect22378"
       width="40.284206"
       height="40.284206"
       x="2.9038804"
       y="91.11084" />
    <rect
       style="fill:#23353c;stroke:none;stroke-width:0.833001;stroke-linecap:round;fill-opacity:1"
       id="rect2043"
       width="243.69507"
       height="259.14926"
       x="300.84088"
       y="283.8873" />
    <g
       id="g2019"
       transform="matrix(0.12622835,0,0,0.12622835,422.62753,387.35356)">
      <path
         style="fill:#ffffff;stroke:none;stroke-width:0.264583px;stroke-linecap:butt;stroke-linejoin:miter;stroke-opacity:1"
         d="m 16.733421,30.912292 -0.26698,55.276022 11.37019,-2.312546 0.54656,-22.990093 18.600375,26.064218 13.9621,-4.52202 L 43.003741,57.77202 60.652206,33.921099 47.479576,30.39248 29.276541,53.114263 29.055681,30.033864 Z"
         id="path951" />
      <path
         style="fill:#ffffff;stroke:none;stroke-width:0.264583px;stroke-linecap:butt;stroke-linejoin:miter;stroke-opacity:1"
         d="m 12.483641,49.064464 -3.9231903,0.245056 -10.30694,-6.003559 -5.41241,5.323011 6.00012,10.56264 -2.45946,6.106278 -12.0093197,3.092494 -0.27535,7.812461 11.3640997,3.46939 2.71661,6.222796 -5.729,10.674461 5.5654,5.943658 10.18424,-6.037299 6.8315203,2.23129 2.65292,11.917909 8.12093,-0.0539 2.67766,-11.546634 7.26499,-2.801969 10.016365,7.096143 5.83333,-6.269889 -3.37651,-6.326147 -1.67118,0.461274 -5.517595,-7.581947 c -17.37388,28.836069 -62.74224,-4.557757 -28.64579,-30.029436 z"
         id="path953"
         sodipodi:nodetypes="ccccccccccccccccccccccccc" />
    </g>
    <rect
       style="fill:#1183f8;fill-opacity:1;stroke:none;stroke-width:0.2;stroke-linecap:round;stroke-miterlimit:4;stroke-dasharray:none;stroke-opacity:1"
       id="rect922"
       width="40.284206"
       height="40.284206"
       x="6.0619764"
       y="192.71335" />
    <rect
       style="fill:#fcfcfc;fill-opacity:1;stroke:none;stroke-width:0.2;stroke-linecap:round;stroke-miterlimit:4;stroke-dasharray:none;stroke-opacity:1"
       id="rect3773"
       width="40.284206"
       height="40.284206"
       x="46.346184"
       y="192.71335" />
    <rect
       style="fill:#1a1a1a;fill-opacity:1;stroke:none;stroke-width:0.2;stroke-linecap:round;stroke-miterlimit:4;stroke-dasharray:none;stroke-opacity:1"
       id="rect7014"
       width="40.284206"
       height="40.284206"
       x="86.630386"
       y="192.71335" />
    <rect
       style="fill:#808080;fill-opacity:1;stroke:none;stroke-width:0.2;stroke-linecap:round;stroke-miterlimit:4;stroke-dasharray:none;stroke-opacity:1"
       id="rect7106"
       width="40.284206"
       height="40.284206"
       x="126.9146"
       y="192.71335" />
    <g
       id="g920">
      <rect
         style="fill:#2b1100;fill-opacity:1;stroke:none;stroke-width:0.0729245;stroke-linecap:round;stroke-miterlimit:4;stroke-dasharray:none"
         id="rect5608"
         width="61.329407"
         height="77.222664"
         x="206.68745"
         y="153.93422" />
      <g
         id="g913">
        <path
           id="rect5317"
           style="fill:#ffffff;fill-opacity:1;stroke:none;stroke-width:0.161463;stroke-linecap:round;stroke-miterlimit:4;stroke-dasharray:none"
           d="M 918.03125 726.04492 L 918.03125 729.62305 L 914.45312 729.62305 L 914.45312 733.20312 L 918.03125 733.20312 L 918.03125 736.78125 L 921.61133 736.78125 L 921.61133 733.20312 L 925.18945 733.20312 L 925.18945 729.62305 L 921.61133 729.62305 L 921.61133 726.04492 L 918.03125 726.04492 z "
           transform="scale(0.26458333)" />
        <path
           id="rect5458"
           style="fill:#ffffff;fill-opacity:1;stroke:none;stroke-width:0.161463;stroke-linecap:round;stroke-miterlimit:4;stroke-dasharray:none"
           d="M 931.32812 726.04492 L 931.32812 729.62305 L 927.75 729.62305 L 927.75 733.20312 L 931.32812 733.20312 L 931.32812 736.78125 L 934.90625 736.78125 L 934.90625 733.20312 L 938.48633 733.20312 L 938.48633 729.62305 L 934.90625 729.62305 L 934.90625 726.04492 L 931.32812 726.04492 z "
           transform="scale(0.26458333)" />
        <path
           id="path1754"
           style="fill:#ffffff;fill-opacity:1;stroke:none;stroke-width:0.0427203;stroke-linecap:round;stroke-miterlimit:4;stroke-dasharray:none"
           d="m 236.42185,185.17222 a 8.3606097,8.3606097 0 0 0 -8.3606,8.3606 8.3606097,8.3606097 0 0 0 8.3606,8.3606 8.3606097,8.3606097 0 0 0 7.24537,-4.19319 l -3.52619,-2.06143 a 4.3193714,4.3193714 0 0 1 -3.77725,2.26727 4.3193714,4.3193714 0 0 1 -4.31935,-4.31935 4.3193714,4.3193714 0 0 1 4.31935,-4.31943 4.3193714,4.3193714 0 0 1 3.73395,2.15229 l 3.55489,-2.08354 a 8.3606097,8.3606097 0 0 0 -7.23077,-4.16382 z" />
      </g>
    </g>
  </g>
  <metadata
     id="metadata845">
    <rdf:RDF>
      <cc:License
         rdf:about="http://creativecommons.org/licenses/by/4.0/">
        <cc:permits
           rdf:resource="http://creativecommons.org/ns#Reproduction" />
        <cc:permits
           rdf:resource="http://creativecommons.org/ns#Distribution" />
        <cc:requires
           rdf:resource="http://creativecommons.org/ns#Notice" />
        <cc:requires
           rdf:resource="http://creativecommons.org/ns#Attribution" />
        <cc:permits
           rdf:resource="http://creativecommons.org/ns#DerivativeWorks" />
      </cc:License>
      <cc:Work
         rdf:about="">
        <cc:license
           rdf:resource="http://creativecommons.org/licenses/by/4.0/" />
      </cc:Work>
    </rdf:RDF>
  </metadata>
</svg>
