<?xml version="1.0" encoding="UTF-8" standalone="no"?>
<!-- Created with Inkscape (http://www.inkscape.org/) -->

<svg
   width="256"
   height="256"
   viewBox="0 0 67.73333 67.733335"
   version="1.1"
   id="svg5"
   inkscape:version="1.1.2 (0a00cf5339, 2022-02-04)"
   sodipodi:docname="Kate_IconCreation.svg"
   inkscape:export-filename="/home/kevin/Desktop/My_World/PersonalRepositoy/STK_Projects/KateCharacter/KateIcon.png"
   inkscape:export-xdpi="96"
   inkscape:export-ydpi="96"
   xmlns:inkscape="http://www.inkscape.org/namespaces/inkscape"
   xmlns:sodipodi="http://sodipodi.sourceforge.net/DTD/sodipodi-0.dtd"
   xmlns="http://www.w3.org/2000/svg"
   xmlns:svg="http://www.w3.org/2000/svg"
   xmlns:rdf="http://www.w3.org/1999/02/22-rdf-syntax-ns#"
   xmlns:cc="http://creativecommons.org/ns#">
  <sodipodi:namedview
     id="namedview7"
     pagecolor="#ffffff"
     bordercolor="#666666"
     borderopacity="1.0"
     inkscape:pageshadow="2"
     inkscape:pageopacity="0.0"
     inkscape:pagecheckerboard="0"
     inkscape:document-units="px"
     showgrid="false"
     units="px"
     inkscape:zoom="1.3338306"
     inkscape:cx="128.20219"
     inkscape:cy="127.45247"
     inkscape:window-width="1856"
     inkscape:window-height="1243"
     inkscape:window-x="64"
     inkscape:window-y="0"
     inkscape:window-maximized="1"
     inkscape:current-layer="layer1"
     objecttolerance="1"
     showguides="false" />
  <defs
     id="defs2" />
  <g
     inkscape:label="Layer 1"
     inkscape:groupmode="layer"
     id="layer1">
    <path
       style="fill:#23353c;fill-opacity:1;stroke:none;stroke-width:0.793752;stroke-linecap:butt;stroke-linejoin:miter;stroke-miterlimit:4;stroke-dasharray:none;stroke-opacity:1"
       d="m 35.464829,19.851924 c -5.976907,0.230467 -11.479828,4.621971 -13.333894,9.470844 l 10.064351,4.086024 z"
       id="path8278"
       sodipodi:nodetypes="cccc" />
    <path
       style="fill:#a6e8fe;fill-opacity:1;stroke:#3098e1;stroke-width:0.793752;stroke-linecap:butt;stroke-linejoin:miter;stroke-miterlimit:4;stroke-dasharray:none;stroke-opacity:1"
       d="m 30.769025,26.628026 c 1.534449,0.775814 -0.484239,3.221137 -1.672874,2.589843 -12.276837,-7.727888 -21.9210801,4.932681 -5.876779,13.848109 0.446554,0.344529 2.874577,2.628205 2.874577,2.628205 C 15.293474,41.150859 10.855852,38.687546 11.635592,30.298661 10.768556,29.190994 0.43936572,24.258449 0.95223838,22.048161 1.9739228,19.294421 11.978867,26.845099 13.197539,26.749802 17.514256,22.638828 24.636995,22.144823 30.769025,26.628026 Z"
       id="path8276"
       sodipodi:nodetypes="cccccccc" />
    <path
       style="fill:#ff81e5;fill-opacity:1;stroke:#3098e1;stroke-width:0.26458333;stroke-linecap:butt;stroke-linejoin:miter;stroke-miterlimit:4;stroke-dasharray:none;stroke-opacity:1"
       d="M 4.292216,6.9179677 C 5.2673914,7.291684 6.1274498,7.6896472 7.6115734,7.598585 13.370994,7.2654816 19.138043,6.6674682 25.833772,7.0981393 29.054828,7.639529 31.549078,10.163653 33.704611,11.96567 L 32.509387,11.701967 C 30.581373,9.9318711 28.34366,8.668932 25.821234,7.8722334 17.982235,7.4573078 11.192573,8.4122983 4.1220623,9.0006382 L 2.9798736,8.0009789 Z"
       id="path88572"
       sodipodi:nodetypes="ccccccccc" />
    <path
       id="path7486"
       style="fill:#a6e8fe;fill-opacity:1;stroke:#3098e1;stroke-width:0.79374999;stroke-linecap:butt;stroke-linejoin:miter;stroke-miterlimit:4;stroke-dasharray:none;stroke-opacity:1"
       d="M 13.64573,4.3485901 C 9.6267789,4.3327572 6.3492913,4.4865275 5.9786789,4.6400029 -0.44142782,7.602098 2.8343344,9.9638707 6.3086102,9.3012792 7.2767142,9.4057875 20.384165,7.3498007 25.349793,7.9159395 33.050144,9.860871 33.395938,14.416253 38.4461,17.093184 35.890304,13.19019 34.382893,7.5135639 25.760745,5.0748641 22.425101,4.5498555 17.664682,4.3644232 13.64573,4.3485901 Z m 5.431913,2.0807988 c 2.165421,0.00762 4.352124,0.074944 6.535935,0.1971088 4.698448,0.9956476 7.123088,4.1151173 8.219062,5.6186613 l -0.315852,0.07199 C 31.527132,10.218382 27.280919,7.6225413 25.18403,7.5156122 19.970371,7.2096498 5.9773041,8.6026617 5.3647728,8.7760987 4.1588022,8.9268899 2.1309667,8.1624147 5.348834,7.2884856 9.6523044,6.6836155 14.313718,6.4126169 19.077643,6.4293889 Z" />
    <path
       style="fill:#ff81e5;fill-opacity:1;stroke:#3098e1;stroke-width:0.793752;stroke-linecap:butt;stroke-linejoin:miter;stroke-miterlimit:4;stroke-dasharray:none;stroke-opacity:1"
       d="m 22.50975,29.383372 c -1.541123,0.2203 -3.236436,2.331834 -2.56081,4.748313 2.041488,6.247452 6.486296,10.064515 8.164778,12.169591 l -1.329763,0.31185 -7.137438,-7.175925 -2.077634,-7.073629 0.957458,-2.132469 z"
       id="path41569"
       sodipodi:nodetypes="cccccccc" />
    <path
       id="path68269"
       style="fill:#23353c;fill-opacity:1;stroke:none;stroke-width:0.79375;stroke-linecap:butt;stroke-linejoin:miter;stroke-miterlimit:4;stroke-dasharray:none;stroke-opacity:1"
       d="m 20.873405,28.95318 c -1.124341,1.342059 -1.474274,2.313474 -0.592608,3.720269 -0.58365,0.284946 -0.87482,0.734733 -0.816108,1.381712 1.091588,3.517573 3.825088,9.962751 9.102839,12.194734 l 1.90231,-4.047396 c 0.01864,-0.09916 -0.151641,-0.45691 -0.433798,-0.963229 l 0.487458,0.145308 -0.276271,-6.781391 c -3.288463,-3.107522 -5.198009,-4.16163 -9.373822,-5.650007 z"
       sodipodi:nodetypes="ccccccccc" />
    <path
       id="path1552"
       style="fill:#a6e8fe;fill-opacity:1;stroke:#3098e1;stroke-width:0.79375;stroke-linecap:butt;stroke-linejoin:miter;stroke-miterlimit:4;stroke-dasharray:none;stroke-opacity:1"
       d="m 35.218873,9.8696058 c 0.407673,2.6876022 -2.26101,2.0274532 -5.203724,0.9913892 0.54312,4.054929 4.266058,12.793216 2.4194,17.006493 -0.993544,2.303619 -3.252906,3.943988 -4.181786,3.541316 -1.642059,-1.043599 -1.709716,-1.872428 -5.245165,-2.757132 -7.136777,-1.040466 -6.648262,5.031938 -3.760207,10.800603 3.098094,5.475739 9.193608,12.22232 15.06713,15.46852 7.320623,3.690718 8.475207,2.642859 12.806224,2.913596 1.712477,0.129613 9.098697,0.04412 14.779435,-0.740884 -1.812983,-1.594336 -2.684156,-1.639523 -2.293315,-5.273058 0.08229,-0.525215 1.73364,-1.964841 1.811967,-2.884906 -0.166046,-1.076265 -0.755842,-1.561245 -1.450424,-1.899629 l 0.665176,-7.11876 C 60.712773,37.173004 60.141382,31.629625 59.5144,29.915521 57.14642,22.216785 45.900951,14.886748 35.218873,9.8696058 Z M 21.224588,29.966881 c 3.370464,-0.414374 4.937714,2.316947 5.295106,3.36785 1.631536,4.118994 2.357996,10.911827 1.070549,12.052322 -2.151599,1.485596 -5.207358,-3.707529 -7.262473,-7.078115 -1.353696,-2.900565 -3.536129,-7.147844 0.896818,-8.342057 z"
       sodipodi:nodetypes="cccccccccccccccccccc" />
    <path
       style="fill:#ffffff;fill-opacity:1;stroke:#3098e1;stroke-width:0.26458333;stroke-linecap:butt;stroke-linejoin:miter;stroke-miterlimit:4;stroke-dasharray:none;stroke-opacity:1"
       d="m 56.231916,48.989928 c -3.895651,-5.87424 1.464995,-24.028615 4.40178,-9.072896 0.58045,2.767666 -0.261063,5.095499 -0.623934,7.063534 -0.919382,-1.350267 -2.044309,1.206506 -3.777846,2.009362 z"
       id="path1544"
       sodipodi:nodetypes="cccc" />
    <ellipse
       style="fill:#ff81e5;fill-opacity:1;stroke:none;stroke-width:0.793752;stroke-linecap:round;stroke-miterlimit:4;stroke-dasharray:none;stroke-opacity:1"
       id="path6458"
       cx="36.371288"
       cy="38.907795"
       rx="2.5948005"
       ry="5.0135927" />
    <path
       id="path1546"
       style="fill:#ffffff;stroke:#3098e1;stroke-width:0.26458333;stroke-linecap:butt;stroke-linejoin:miter;stroke-miterlimit:4;stroke-dasharray:none;stroke-opacity:1"
       d="m 42.007074,30.282202 c -2.049064,-0.0072 -4.163672,2.003343 -5.669931,6.781656 -0.216909,3.511684 -0.526495,7.039401 0.954197,10.254968 a 2.9841377,1.2224627 0 0 1 1.368604,0.377482 c 3.257815,-1.547983 4.076068,1.091283 7.872395,2.070969 1.580689,-2.592527 1.8667,-5.547583 1.962057,-8.556165 -0.544728,-6.455406 -3.443566,-10.918218 -6.487322,-10.92891 z" />
    <path
       style="fill:none;fill-opacity:1;stroke:#3098e1;stroke-width:0.793752;stroke-linecap:butt;stroke-linejoin:miter;stroke-miterlimit:4;stroke-dasharray:none;stroke-opacity:1"
       d="m 44.982243,31.695175 c 4.621995,-7.989901 10.020234,-9.258712 12.441751,2.615209"
       id="path4014"
       sodipodi:nodetypes="cc" />
    <circle
       style="fill:#000000;fill-opacity:1;stroke:none;stroke-width:0.793752;stroke-linecap:round;stroke-miterlimit:4;stroke-dasharray:none"
       id="path4213"
       cx="47.156773"
       cy="28.598217"
       r="1.2298615" />
    <circle
       style="fill:#050000;fill-opacity:1;stroke:none;stroke-width:0.793752;stroke-linecap:round;stroke-miterlimit:4;stroke-dasharray:none"
       id="path4215"
       cx="56.500198"
       cy="30.888258"
       r="1.032963" />
    <ellipse
       style="fill:#0e3d8e;fill-opacity:1;stroke:none;stroke-width:0.793752;stroke-linecap:round;stroke-miterlimit:4;stroke-dasharray:none"
       id="ellipse107152"
       cx="46.48719"
       cy="40.563385"
       rx="1.9223768"
       ry="5.126266" />
    <ellipse
       style="fill:#23353c;fill-opacity:1;stroke:none;stroke-width:0.793752;stroke-linecap:round;stroke-miterlimit:4;stroke-dasharray:none"
       id="path5862"
       cx="46.514835"
       cy="40.38485"
       rx="1.7849854"
       ry="4.7598948" />
    <ellipse
       style="fill:#0e3d8e;fill-opacity:1;stroke:none;stroke-width:0.793752;stroke-linecap:round;stroke-miterlimit:4;stroke-dasharray:none"
       id="ellipse109067"
       cx="56.506786"
       cy="40.806671"
       rx="1.3856822"
       ry="4.0497017" />
    <ellipse
       style="fill:#23353c;fill-opacity:1;stroke:none;stroke-width:0.793752;stroke-linecap:round;stroke-miterlimit:4;stroke-dasharray:none"
       id="path5864"
       cx="56.466286"
       cy="40.561226"
       rx="1.2642515"
       ry="3.6948166" />
    <ellipse
       style="fill:#ff81e5;fill-opacity:1;stroke:none;stroke-width:0.793752;stroke-linecap:round;stroke-miterlimit:4;stroke-dasharray:none;stroke-opacity:1"
       id="path6432"
       cx="36.373688"
       cy="48.481792"
       rx="2.9841378"
       ry="1.2224628" />
    <path
       style="fill:#0b1519;fill-opacity:1;stroke:none;stroke-width:0.793752;stroke-linecap:butt;stroke-linejoin:miter;stroke-miterlimit:4;stroke-dasharray:none;stroke-opacity:1"
       d="m 36.239426,36.935859 c 1.747225,-9.518613 8.068339,-10.968687 11.087668,-1.159236 -5.358097,-7.830939 -7.598402,-4.755088 -11.087668,1.159236 z"
       id="path95589"
       sodipodi:nodetypes="ccc" />
    <path
       style="fill:#0b1519;fill-opacity:1;stroke:none;stroke-width:0.793752;stroke-linecap:butt;stroke-linejoin:miter;stroke-miterlimit:4;stroke-dasharray:none;stroke-opacity:1"
       d="m 43.049821,30.568504 c 1.12107,-0.158216 2.374491,-0.114299 3.741305,-0.875688 -0.220246,1.374145 -0.572151,1.658483 -1.771441,2.28248 1.334717,0.0926 2.283846,-0.438816 3.645585,-1.872864 -0.326846,1.551129 -0.413569,3.589086 -2.504696,3.472147 z"
       id="path98217"
       sodipodi:nodetypes="cccccc" />
    <path
       style="fill:#0b1519;fill-opacity:1;stroke:none;stroke-width:0.793752;stroke-linecap:butt;stroke-linejoin:miter;stroke-miterlimit:4;stroke-dasharray:none;stroke-opacity:1"
       d="m 55.50055,37.993933 c 1.083895,-6.598631 4.956532,-4.934546 5.049463,1.709971 -1.304965,-4.55611 -2.33968,-7.164501 -5.049463,-1.709971 z"
       id="path100713"
       sodipodi:nodetypes="ccc" />
    <path
       style="fill:#0b1519;fill-opacity:1;stroke:none;stroke-width:0.793752;stroke-linecap:butt;stroke-linejoin:miter;stroke-miterlimit:4;stroke-dasharray:none;stroke-opacity:1"
       d="m 59.587358,35.623735 c 0.158092,0.401244 0.726811,-0.836837 0.701001,-1.753605 0,0 -0.633763,0.653779 -1.315019,0.874057 0.414626,-0.496981 0.594381,-2.38568 0.594381,-2.38568 -0.44987,0.796211 -1.867572,2.269324 -1.89823,2.22906 0.371425,-0.161661 1.317019,0.614769 1.917867,1.036168 z"
       id="path102775"
       sodipodi:nodetypes="cscscc" />
    <path
       style="fill:#ffffff;fill-opacity:1;stroke:none;stroke-width:0.793752;stroke-linecap:butt;stroke-linejoin:miter;stroke-miterlimit:4;stroke-dasharray:none;stroke-opacity:1"
       d="m 36.279375,11.389325 c 0.228388,0.573519 0.07627,1.065584 -0.822193,1.397879 5.965367,3.075925 10.789235,6.474283 16.455625,10.195589 -4.53911,-4.172208 -9.239249,-8.347128 -15.633432,-11.593468 z"
       id="path110886"
       sodipodi:nodetypes="cccc" />
    <path
       style="fill:#ffffff;fill-opacity:1;stroke:none;stroke-width:0.793752;stroke-linecap:butt;stroke-linejoin:miter;stroke-miterlimit:4;stroke-dasharray:none;stroke-opacity:1"
       d="M 58.918521,55.081502 C 57.105341,52.961 55.550115,50.675428 54.516937,48.05578 c 0.63404,4.814526 1.385074,5.286109 4.401584,7.025722 z"
       id="path113731"
       sodipodi:nodetypes="ccc" />
    <path
       style="fill:#ffffff;fill-opacity:1;stroke:none;stroke-width:0.793752;stroke-linecap:butt;stroke-linejoin:miter;stroke-miterlimit:4;stroke-dasharray:none;stroke-opacity:1"
       d="m 26.649823,31.977166 c 0.870473,1.325709 1.151467,2.533758 1.583818,3.772018 0.725244,-2.525028 0.863126,-2.572119 -1.583818,-3.772018 z"
       id="path115503"
       sodipodi:nodetypes="ccc" />
    <path
       style="fill:#ffffff;fill-opacity:1;stroke:none;stroke-width:0.793752;stroke-linecap:butt;stroke-linejoin:miter;stroke-miterlimit:4;stroke-dasharray:none;stroke-opacity:1"
       d="m 29.953462,27.135491 c 0.272017,0.751893 0.220819,1.263909 -1.147415,0.798478 -2.92452,-2.592087 -7.052848,-2.87386 -9.719018,-2.70046 3.527983,-1.214927 7.91898,-0.281182 10.866433,1.901982 z"
       id="path119894"
       sodipodi:nodetypes="cccc" />
    <path
       style="fill:#ffffff;fill-opacity:1;stroke:none;stroke-width:0.793752;stroke-linecap:butt;stroke-linejoin:miter;stroke-miterlimit:4;stroke-dasharray:none;stroke-opacity:1"
       d="m 11.360784,26.623784 c 1.155756,1.030227 1.092775,1.093318 0.974466,1.728679 1.102089,-1.517736 0.194172,-1.349129 -0.974466,-1.728679 z"
       id="path122231"
       sodipodi:nodetypes="ccc" />
    <path
       style="fill:#ffffff;fill-opacity:1;stroke:none;stroke-width:0.793752;stroke-linecap:butt;stroke-linejoin:miter;stroke-miterlimit:4;stroke-dasharray:none;stroke-opacity:1"
       d="m 14.118113,30.97238 c 0.0086,2.186946 -0.06119,3.791039 1.471097,5.594963 -2.331714,-0.82003 -2.238994,-3.509671 -1.471097,-5.594963 z"
       id="path124434"
       sodipodi:nodetypes="ccc" />
  </g>
  <metadata
     id="metadata849">
    <rdf:RDF>
      <cc:Work
         rdf:about="">
        <cc:license
           rdf:resource="http://creativecommons.org/licenses/by-sa/4.0/" />
      </cc:Work>
      <cc:License
         rdf:about="http://creativecommons.org/licenses/by-sa/4.0/">
        <cc:permits
           rdf:resource="http://creativecommons.org/ns#Reproduction" />
        <cc:permits
           rdf:resource="http://creativecommons.org/ns#Distribution" />
        <cc:requires
           rdf:resource="http://creativecommons.org/ns#Notice" />
        <cc:requires
           rdf:resource="http://creativecommons.org/ns#Attribution" />
        <cc:permits
           rdf:resource="http://creativecommons.org/ns#DerivativeWorks" />
        <cc:requires
           rdf:resource="http://creativecommons.org/ns#ShareAlike" />
      </cc:License>
    </rdf:RDF>
  </metadata>
</svg>
