<?xml version="1.0" encoding="UTF-8" standalone="no"?>
<!-- Created with Inkscape (http://www.inkscape.org/) -->

<svg
   width="256"
   height="256"
   viewBox="0 0 67.733332 67.733335"
   version="1.1"
   id="svg5"
   inkscape:export-filename="/home/kevin/Desktop/My_World/PersonalRepositoy/STK_Projects/KatieCharacter/Katie_Logo.png"
   inkscape:export-xdpi="96"
   inkscape:export-ydpi="96"
   inkscape:version="1.1.2 (0a00cf5339, 2022-02-04)"
   sodipodi:docname="Katie_LogoCreation.svg"
   xmlns:inkscape="http://www.inkscape.org/namespaces/inkscape"
   xmlns:sodipodi="http://sodipodi.sourceforge.net/DTD/sodipodi-0.dtd"
   xmlns="http://www.w3.org/2000/svg"
   xmlns:svg="http://www.w3.org/2000/svg"
   xmlns:rdf="http://www.w3.org/1999/02/22-rdf-syntax-ns#"
   xmlns:cc="http://creativecommons.org/ns#">
  <sodipodi:namedview
     id="namedview7"
     pagecolor="#ffffff"
     bordercolor="#666666"
     borderopacity="1.0"
     inkscape:pageshadow="2"
     inkscape:pageopacity="0.0"
     inkscape:pagecheckerboard="0"
     inkscape:document-units="px"
     showgrid="false"
     units="px"
     width="256px"
     objecttolerance="1"
     inkscape:zoom="1.2277304"
     inkscape:cx="117.69685"
     inkscape:cy="119.32587"
     inkscape:window-width="1302"
     inkscape:window-height="739"
     inkscape:window-x="0"
     inkscape:window-y="0"
     inkscape:window-maximized="1"
     inkscape:current-layer="layer1" />
  <defs
     id="defs2" />
  <g
     inkscape:label="Layer 1"
     inkscape:groupmode="layer"
     id="layer1">
    <path
       style="fill:#fab1a2;fill-opacity:1;stroke:#ffc3b4;stroke-width:0.79375;stroke-linecap:butt;stroke-linejoin:round;stroke-miterlimit:4;stroke-dasharray:none;stroke-opacity:1;paint-order:normal"
       d="m 11.35304,11.490972 -8.8184661,18.063617 6.2330845,1.050608 2.6482116,-5.285179 4.027327,-1.637123 2.72239,11.368208 6.272125,-0.343696 -3.97973,-11.161438 14.61913,-9.084984 -7.391124,-1.680047 -14.253367,6.5039 3.835945,-9.007518 z"
       id="path26811" />
    <path
       style="fill:#fab1a2;fill-opacity:1;stroke:#ffc3b4;stroke-width:0.631382;stroke-linecap:butt;stroke-linejoin:round;stroke-miterlimit:4;stroke-dasharray:none;stroke-opacity:1;paint-order:normal"
       d="m 58.30353,16.030434 3.846816,17.246418 -4.457168,0.06025 -1.172741,-5.055587 -2.588558,-2.014221 -3.318973,9.697777 -4.308874,-1.181293 4.165409,-9.338743 -9.00117,-10.097293 5.339884,-0.456423 9.072037,7.757964 -1.52867,-8.521551 z"
       id="path32969" />
    <path
       id="path1095"
       style="fill:#bbeb8c;fill-opacity:1;stroke:#aadf6e;stroke-width:2;stroke-linecap:round;stroke-opacity:1"
       d="M 59.212779,52.820509 C 56.713264,63.196271 39.476619,64.147632 29.784358,59.44069 20.384946,54.875967 14.024423,47.367786 16.992277,38.005796 19.919301,28.772603 28.913844,23.661289 40.595042,26.652491 51.907648,29.549307 61.652015,42.694974 59.212779,52.820509 Z"
       sodipodi:nodetypes="sssss" />
    <path
       style="fill:#ffffff;fill-opacity:1;stroke:none;stroke-width:0.264583px;stroke-linecap:butt;stroke-linejoin:miter;stroke-opacity:1"
       d="M 33.346648,52.462683 C 44.652305,28.353605 21.25919,22.117758 19.60178,44.89887 c 0.924955,2.836699 7.58794,6.315754 13.744868,7.563813 z"
       id="path10657"
       sodipodi:nodetypes="ccc" />
    <path
       style="fill:#ef5219;stroke:none;stroke-width:0.384519px;stroke-linecap:butt;stroke-linejoin:miter;stroke-opacity:1;fill-opacity:1"
       d="m 36.112522,53.367172 c -0.182806,1.316552 11.338436,5.074224 12.496086,4.761234 -8.409975,4.232531 -14.138617,3.053745 -12.496086,-4.761234 z"
       id="path11266"
       sodipodi:nodetypes="ccc" />
    <path
       style="fill:#424242;fill-opacity:1;stroke:none;stroke-width:0.264583px;stroke-linecap:butt;stroke-linejoin:miter;stroke-opacity:1"
       d="m 32.42154,31.037895 c 2.032457,0.708642 3.723022,0.173216 5.206574,-0.456806 -0.649669,1.432218 -1.654876,2.121483 -3.072794,2.335505 1.192253,0.987749 3.474215,0.935254 5.324896,0.582671 -1.374419,1.889265 -2.947756,2.469937 -4.250966,2.493375 z"
       id="path21427"
       sodipodi:nodetypes="cccccc" />
    <circle
       style="fill:#a6df6c;fill-opacity:1;stroke:none;stroke-width:0.2;stroke-linecap:round;stroke-miterlimit:4;stroke-dasharray:none;stroke-opacity:1"
       id="path23904"
       cx="47.654259"
       cy="51.918442"
       r="1.1316879" />
    <circle
       style="fill:#a6df6c;fill-opacity:1;stroke:none;stroke-width:0.161114;stroke-linecap:round;stroke-miterlimit:4;stroke-dasharray:none;stroke-opacity:1"
       id="circle26350"
       cx="52.18235"
       cy="52.964127"
       r="0.91165322" />
    <path
       id="ellipse34257"
       style="fill:#434343;fill-opacity:1;stroke:none;stroke-width:8.30842;stroke-linecap:round;stroke-miterlimit:4;stroke-dasharray:none;stroke-opacity:1"
       d="M 108.58398 125.76367 A 26.469328 36.841372 13.365164 0 0 78.066406 155.99609 A 26.469328 36.841372 13.365164 0 0 77.3125 174.95703 C 83.622396 182.17956 97.360325 189.68707 112.23633 194.5918 A 26.469328 36.841372 13.365164 0 0 129.57031 168.23242 A 26.469328 36.841372 13.365164 0 0 112.33398 126.26953 A 26.469328 36.841372 13.365164 0 0 108.58398 125.76367 z "
       transform="scale(0.26458333)" />
    <path
       id="ellipse16159"
       style="fill:#232222;fill-opacity:1;stroke:none;stroke-width:6.25157;stroke-linecap:round;stroke-miterlimit:4;stroke-dasharray:none;stroke-opacity:1"
       d="M 105.23828 135.12891 A 18.629477 29.635926 13.365164 0 0 82.794922 159.97266 A 18.629477 29.635926 13.365164 0 0 82.757812 179.93945 C 88.189735 184.10632 95.622343 188.14525 103.8418 191.5 A 18.629477 29.635926 13.365164 0 0 119.04492 168.58594 A 18.629477 29.635926 13.365164 0 0 107.76953 135.44531 A 18.629477 29.635926 13.365164 0 0 105.23828 135.12891 z "
       transform="scale(0.26458333)" />
    <path
       style="fill:#424242;fill-opacity:1;stroke:none;stroke-width:0.264583px;stroke-linecap:butt;stroke-linejoin:miter;stroke-opacity:1"
       d="M 20.14392,40.057768 C 22.963768,25.166733 42.347999,25.597984 35.212132,47.626668 38.944497,33.724171 28.4234,23.943424 20.14392,40.057768 Z"
       id="path19078"
       sodipodi:nodetypes="ccc" />
    <circle
       style="fill:#ffffff;fill-opacity:1;stroke:none;stroke-width:0.230457;stroke-linecap:round;stroke-miterlimit:4;stroke-dasharray:none;stroke-opacity:1"
       id="path17706"
       cx="33.506374"
       cy="29.88957"
       r="1.6193942"
       transform="rotate(13.365164)" />
  </g>
  <metadata
     id="metadata833">
    <rdf:RDF>
      <cc:License
         rdf:about="http://creativecommons.org/licenses/by/4.0/">
        <cc:permits
           rdf:resource="http://creativecommons.org/ns#Reproduction" />
        <cc:permits
           rdf:resource="http://creativecommons.org/ns#Distribution" />
        <cc:requires
           rdf:resource="http://creativecommons.org/ns#Notice" />
        <cc:requires
           rdf:resource="http://creativecommons.org/ns#Attribution" />
        <cc:permits
           rdf:resource="http://creativecommons.org/ns#DerivativeWorks" />
      </cc:License>
      <cc:Work
         rdf:about="">
        <cc:license
           rdf:resource="http://creativecommons.org/licenses/by/4.0/" />
      </cc:Work>
    </rdf:RDF>
  </metadata>
</svg>
